<svg xmlns="http://www.w3.org/2000/svg" viewBox="0 0 512 512" width="512" height="512">
  <defs>
    <filter id="pencil" x="-10%" y="-10%" width="120%" height="120%">
      <feTurbulence type="fractalNoise" baseFrequency="0.8" numOctaves="2" seed="7" result="noise"/>
      <feDisplacementMap in="SourceGraphic" in2="noise" scale="0.65" xChannelSelector="R" yChannelSelector="G"/>
    </filter>
  </defs>

  <g fill="none" stroke="#303030" stroke-width="7" stroke-linecap="round" stroke-linejoin="round"
     filter="url(#pencil)">

    <!-- birds -->
    <path d="M174 139 Q184 126 194 139 Q204 126 214 139"/>
    <path d="M254 108 Q264 95 274 108 Q284 95 294 108"/>

    <!-- flag and mast -->
    <path d="M302 164 L306 88"/>
    <path d="M306 90 L335 101 L307 111"/>

    <!-- cabin -->
    <path d="M218 171 L232 134 L326 134 L332 171"/>
    <path d="M218 171 L332 171"/>

    <!-- hull -->
    <path d="M185 171 L351 171 L321 258 Q317 269 304 269 L226 269 Q215 269 210 258 Z"/>

    <!-- portholes -->
    <circle cx="226" cy="204" r="11"/>
    <circle cx="268" cy="204" r="11"/>
    <circle cx="310" cy="204" r="11"/>

    <!-- waves -->
    <path d="M154 271 Q168 258 183 271 Q198 284 213 271 Q228 258 243 271 Q258 284 273 271 Q288 258 303 271 Q318 284 333 271 Q348 258 363 271"/>
    <path d="M190 308 Q205 295 220 308 Q235 321 250 308"/>
    <path d="M278 308 Q293 295 308 308 Q323 321 338 308"/>
  </g>
</svg>
